<svg viewBox="0 0 32 32" x="0px" xmlns="http://www.w3.org/2000/svg" y="0px">
    <g data-name="29 Refresh">
        <path d="M29.5,16a1.5,1.5,0,0,1-3,0A10.48,10.48,0,0,0,7.89,9.36h2.25a1.5,1.5,0,0,1,0,3H4.86a1.5,1.5,0,0,1-1.5-1.5V5.57a1.5,1.5,0,0,1,3,0v1A13.5,13.5,0,0,1,29.5,16Zm-2.36,3.64H21.86a1.5,1.5,0,0,0,0,3h2.25A10.48,10.48,0,0,1,5.5,16a1.5,1.5,0,0,0-3,0,13.5,13.5,0,0,0,23.14,9.45v1a1.5,1.5,0,0,0,3,0V21.14A1.5,1.5,0,0,0,27.14,19.64Z"/>
    </g>
    <!--<text fill="#000000" font-family="'Helvetica Neue', Helvetica, Arial-Unicode, Arial, Sans-serif" font-size="5px" font-weight="bold" x="0" y="47">Created by Ricki Tri Putra</text>
    <text fill="#000000" font-family="'Helvetica Neue', Helvetica, Arial-Unicode, Arial, Sans-serif" font-size="5px" font-weight="bold" x="0" y="52">from the Noun Project</text>-->
</svg>