<svg version="1.1" viewBox="0 0 100 100" x="0px" xml:space="preserve" xmlns="http://www.w3.org/2000/svg" xmlns:xlink="http://www.w3.org/1999/xlink" y="0px">
    <path d="M75,60C70.957,60,67.295,61.607,64.597,64.208L39.875,51.847C39.949,51.241,40,50.627,40,50S39.949,48.759,39.875,48.153L64.597,35.792C67.295,38.393,70.957,40,75,40C83.284,40,90,33.284,90,25C90,16.716,83.284,10,75,10S60,16.716,60,25C60,25.627,60.051,26.241,60.125,26.847L35.403,39.208C32.705,36.607,29.043,35,25,35C16.716,35,10,41.716,10,50C10,58.284,16.716,65,25,65C29.043,65,32.705,63.393,35.403,60.792L60.125,73.153C60.051,73.759,60,74.373,60,75C60,83.284,66.716,90,75,90S90,83.284,90,75C90,66.716,83.284,60,75,60Z"/>
    <!--<text fill="#000000" font-family="'Helvetica Neue', Helvetica, Arial-Unicode, Arial, Sans-serif" font-size="5px" font-weight="bold" x="0" y="115">Created by Arthur Shlain</text>-->
    <!--<text fill="#000000" font-family="'Helvetica Neue', Helvetica, Arial-Unicode, Arial, Sans-serif" font-size="5px" font-weight="bold" x="0" y="120">from the Noun Project</text>-->
</svg>